Coordinates
version=1
nRows=11
nColumns=36
inDegrees=yes

Units are S.I. units (second, meters, Newtons, ...)
If the header above contains a line with 'inDegrees', this indicates whether rotational values are in degrees (yes) or radians (no).

endheader
time	pelvis_tilt	pelvis_list	pelvis_rotation	pelvis_tx	pelvis_ty	pelvis_tz	hip_flexion_r	hip_adduction_r	hip_rotation_r	knee_angle_r	knee_angle_r_beta	ankle_angle_r	subtalar_angle_r	mtp_angle_r	hip_flexion_l	hip_adduction_l	hip_rotation_l	knee_angle_l	knee_angle_l_beta	ankle_angle_l	subtalar_angle_l	mtp_angle_l	lumbar_extension	lumbar_bending	lumbar_rotation	arm_flex_r	arm_add_r	arm_rot_r	elbow_flex_r	pro_sup_r	arm_flex_l	arm_add_l	arm_rot_l	elbow_flex_l	pro_sup_l
      0.00000000	      2.81954302	     -0.54188210	      0.22258330	     -0.99514907	      1.29180381	     -0.05838039	     -0.41993656	     -1.66371443	     -3.37715824	      9.62659376	      0.16801576	      5.67319824	    -12.21048789	     -5.40944126	      2.79454266	     -3.02642586	     -2.05574101	     12.84159333	      0.22412808	     12.77063713	     -1.29566351	     -5.40944126	     -8.63073759	      1.70840973	     -1.17920531	      7.77039740	     -8.32097243	     17.55812505	     27.03803513	     77.30244209	      4.68596777	     -6.79982632	     14.44629517	     29.59564209	     72.28835834
      0.00416670	      1.70367224	     -0.32146312	      0.05788152	     -0.99213404	      1.28726435	     -0.05764209	      1.41257860	     -1.59465331	     -2.32459442	     10.71057069	      0.18693472	      8.87299462	    -12.01044955	     -5.61404612	      4.39883548	     -2.43212497	     -0.93024342	     13.73157157	      0.23966114	     12.96483454	     -2.14270961	     -5.61404612	     -6.33520573	      1.57598190	     -1.10475038	      6.81006659	     -7.51345801	     13.24513363	     27.32699715	     77.22276745	      4.15249332	     -5.86979486	     11.14169239	     29.28300374	     72.31026963
      0.00833330	      0.60667471	      0.25888578	     -0.53679254	     -0.98995015	      1.28675531	     -0.05508469	      2.40565379	     -2.13662322	     -2.66642581	     10.27618081	      0.17935319	      9.06252116	    -12.09362571	     -5.78306453	      5.46456818	     -1.92166197	     -0.96417469	     13.80252537	      0.24089951	     12.95554873	     -2.38282820	     -5.78306453	     -4.70411464	      0.63394906	     -0.62163409	      6.25268153	     -6.67965982	     11.59914286	     27.33800856	     76.09957396	      3.87718062	     -5.94930952	     10.38284496	     28.98926551	     71.41393371
      0.01250000	      0.64951866	      0.55745092	     -0.85917345	     -0.99046102	      1.28671928	     -0.05447374	      2.29441804	     -2.46669088	     -2.73621371	     10.09603624	      0.17620907	      9.34626579	    -11.89047377	     -5.91984385	      5.16355955	     -1.61904217	     -0.69923242	     13.53919983	      0.23630362	     12.89275495	     -3.10542715	     -5.91984385	     -4.60047912	      0.14319631	     -0.09139936	      5.80519585	     -6.27708344	     10.22763186	     27.64126715	     75.19818251	      3.85553134	     -6.13640256	     10.05359707	     29.05944865	     70.76689911
      0.01666670	      0.53502092	      0.66989517	     -1.06812297	     -0.98889144	      1.28563987	     -0.05429976	      2.31956205	     -2.51701852	     -2.71204507	      9.83958909	      0.17173323	      9.36396140	    -11.70494181	     -6.48885729	      5.03603451	     -1.48899314	     -0.45524599	     13.23061470	      0.23091779	     12.81661898	     -3.67768910	     -6.48885729	     -4.39379241	      0.00960464	      0.79117537	      4.80830226	     -5.91631259	      6.56920899	     28.71060779	     81.82163006	      4.03492161	     -6.11793895	     10.28456157	     28.92475879	     75.34738103
      0.02083330	      0.32194586	      0.71657055	     -1.16312555	     -0.98674612	      1.28899694	     -0.05302966	      2.31530199	     -2.48570165	     -2.64883609	      9.40322220	      0.16411719	      9.30214826	    -11.26110131	     -6.54284048	      5.01222037	     -1.47118212	     -0.38871735	     12.95123611	      0.22604171	     12.79941517	     -3.79392004	     -6.54284048	     -3.87392122	     -0.08660965	      1.01695516	      4.39676677	     -5.85692073	      6.79283249	     28.90447834	     81.43108081	      3.72544828	     -6.10224367	     10.37254285	     29.16110102	     75.11969679
      0.02500000	      0.47731736	      0.71097919	     -1.12404832	     -0.98823707	      1.28726046	     -0.05305669	      1.97862063	     -2.41490812	     -2.41409491	      9.01128413	      0.15727658	      8.73906973	    -11.76578694	     -6.63676307	      4.75742092	     -1.43848527	     -0.06968090	     12.91011039	      0.22532393	     12.54094916	     -4.57827200	     -6.63676307	     -3.99679013	     -0.01910976	      1.15768577	      4.41210329	     -5.88122382	      7.58115102	     28.79027797	     79.92314130	      3.89088225	     -6.07668815	     10.86657869	     29.04047106	     74.06142691
      0.02916670	      0.39823524	      0.73713730	     -1.15185589	     -0.98963045	      1.28959890	     -0.05304782	      2.00444556	     -2.39990888	     -2.24648110	      8.71353260	      0.15207983	      8.44965764	    -11.79682718	     -6.73367674	      4.81337234	     -1.39167957	      0.00933515	     12.91176792	      0.22535286	     12.28514547	     -4.94933054	     -6.73367674	     -3.83179067	     -0.05240979	      1.27258370	      4.51977417	     -6.17854954	     10.02284910	     28.62013676	     79.95802941	      4.13758374	     -6.33798982	     12.81957959	     28.82813288	     74.83019347
      0.03333330	      0.39191742	      0.74286097	     -1.13952223	     -0.98798113	      1.28561652	     -0.05415622	      1.94789170	     -2.43425374	     -2.15255211	      8.58214642	      0.14978671	      8.22355182	    -12.04463602	     -6.81590373	      4.83720258	     -1.33174436	      0.05556400	     13.03527294	      0.22750843	     12.26119371	     -5.18918783	     -6.81590373	     -3.74785007	      0.00452293	      1.25133417	      4.50885890	     -6.30116232	     10.89171794	     28.66852203	     78.94685417	      4.12356485	     -6.30173405	     13.30352542	     28.93332179	     74.61991245
      0.03750000	      0.30771345	      0.70916034	     -1.15359129	     -0.98875545	      1.28746366	     -0.05370500	      2.01527065	     -2.41717092	     -2.13703645	      8.50198422	      0.14838762	      7.88123674	    -12.37763949	     -6.89149985	      4.96300206	     -1.31498648	      0.08265364	     13.11239447	      0.22885446	     12.17754801	     -5.25798096	     -6.89149985	     -3.65039223	      0.07211420	      1.26444220	      4.50041758	     -6.33333433	     11.32955339	     28.61537780	     78.07762173	      4.19182859	     -6.20617384	     13.54227669	     28.79025179	     74.11463890
      0.04166670	      0.22904706	      0.65350125	     -1.16903218	     -0.98875443	      1.28759017	     -0.05339352	      2.04524744	     -2.34556089	     -1.97977834	      8.35720547	      0.14586075	      7.48160944	    -12.75899884	     -6.90184392	      5.03701075	     -1.34183249	      0.16507824	     13.05009436	      0.22776711	     11.98544798	     -5.45736467	     -6.90184392	     -3.56161701	      0.16051494	      1.24719606	      4.46450081	     -6.40738032	     11.80622374	     28.67718053	     77.87580058	      4.18639757	     -6.22066764	     13.90846420	     28.84162463	     74.10037197
